# xmcd
#
# Track frame offsets:
#	150
#	24858
#	42261
#	67994
#	88418
#	111142
#	134674
#	153433
#	171650
#	194663
#	220880
#	240350
#	270025
#
# Disc length: 4077 seconds
#
# Revision: 6
# Processed by: cddbd v1.5PL3 Copyright (c) Steve Scherf et al.
# Submitted via: EasyCDDAExtractor 6.5.0.1
#
DISCID=b50feb0d
DTITLE=Various Artist - Sometimes I Dream
DYEAR=2002
DGENRE=Vocal
TTITLE0=Mario Frangoulis - Vincerò, Perderò(Sometimes I Dream US CD Version)
TTITLE1=Mario Frangoulis - Buongiorno Principessa(From The Film ''Life Is Beat
TTITLE1=uiful'')(Sometimes I Dream US CD Version)
TTITLE2=Mario Frangoulis - Sometimes I Dream(Sometimes I Dream US CD Version)
TTITLE3=Mario Frangoulis - Luna Rossa(Sometimes I Dream US CD Version)
TTITLE4=Mario Frangoulis - Naturaleza Muerta(Sometimes I Dream US CD Version)
TTITLE5=Mario Frangoulis With Justin Hayward Of The Moody Blues - Nights In Wh
TTITLE5=ite Satin(Notte Di Luce)(Sometimes I Dream US CD Version)
TTITLE6=Mario Frangoulis - Ton Eafto Tou Paidi(Sometimes I Dream US CD Version
TTITLE6=)
TTITLE7=Mario Frangoulis - Non Sarà(Sometimes I Dream US CD Version)
TTITLE8=Mario Frangoulis - Hijo De La Luna(Sometimes I Dream US CD Version)
TTITLE9=Mario Frangoulis - Night Wants To Forget(Sometimes I Dream US CD Versi
TTITLE9=on)
TTITLE10=Mario Frangoulis - Canzone Arrabbiata(Sometimes I Dream US CD Version
TTITLE10=)
TTITLE11=Mario Frangoulis - A La Luna De Valencia(Sometimes I Dream US CD Vers
TTITLE11=ion)
TTITLE12=Mario Frangoulis - video clip
EXTD=
EXTT0=
EXTT1=
EXTT2=
EXTT3=
EXTT4=
EXTT5=
EXTT6=
EXTT7=
EXTT8=
EXTT9=
EXTT10=
EXTT11=
EXTT12=
PLAYORDER=
